/* XPM */
static char *_042f7c8de5e4ddceed31d73b758656634Tq4cCy82z9DQO7[] = {
/* columns rows colors chars-per-pixel */
"64 64 11 1 ",
"  c #211508",
". c #222222",
"X c #412609",
"o c #483B3A",
"O c #7C4C14",
"+ c #664A27",
"@ c #775C55",
"# c #946B39",
"$ c #E3B444",
"% c #EDD989",
"& c #F5F6D8",
/* pixels */
"............oooo....                    oooo....oooo............",
"............oooo....                    oooo....oooo............",
"............oooo....                    oooo....oooo............",
"............oooo....                    oooo....oooo............",
"....oooooooo        XXXX++++++++++++XXXX    oooooooooooooooo@@@@",
"....oooooooo        XXXX++++++++++++XXXX    oooooooooooooooo@@@@",
"....oooooooo        XXXX++++++++++++XXXX    oooooooooooooooo@@@@",
"....oooooooo        XXXX++++++++++++XXXX    oooooooooooooooo@@@@",
"oooooooo    ++++XXXXXXXX        ++++XXXX    oooooooooooooooo@@@@",
"oooooooo    ++++XXXXXXXX        ++++XXXX    oooooooooooooooo@@@@",
"oooooooo    ++++XXXXXXXX        ++++XXXX    oooooooooooooooo@@@@",
"oooooooo    ++++XXXXXXXX        ++++XXXX    oooooooooooooooo@@@@",
"oooooooo    XXXX++++        ++++XXXX    oooooooooooooooooooo@@@@",
"oooooooo    XXXX++++        ++++XXXX    oooooooooooooooooooo@@@@",
"oooooooo    XXXX++++        ++++XXXX    oooooooooooooooooooo@@@@",
"oooooooo    XXXX++++        ++++XXXX    oooooooooooooooooooo@@@@",
"....oooooooo    XXXX++++++++XXXX    XXXX    oooooooooooooooo@@@@",
"....oooooooo    XXXX++++++++XXXX    XXXX    oooooooooooooooo@@@@",
"....oooooooo    XXXX++++++++XXXX    XXXX    oooooooooooooooo@@@@",
"....oooooooo    XXXX++++++++XXXX    XXXX    oooooooooooooooo@@@@",
"oooooooooooo                    XXXXXXXXXXXX    oooooooooooo@@@@",
"oooooooooooo                    XXXXXXXXXXXX    oooooooooooo@@@@",
"oooooooooooo                    XXXXXXXXXXXX    oooooooooooo@@@@",
"oooooooooooo                    XXXXXXXXXXXX    oooooooooooo@@@@",
"....oooo    XXXX++++########++++++++++++XXXX    oooooooooooooooo",
"....oooo    XXXX++++########++++++++++++XXXX    oooooooooooooooo",
"....oooo    XXXX++++########++++++++++++XXXX    oooooooooooooooo",
"....oooo    XXXX++++########++++++++++++XXXX    oooooooooooooooo",
"OOOOOOOOOOOO++++####################++++++++XXXX    oooooooo@@@@",
"OOOOOOOOOOOO++++####################++++++++XXXX    oooooooo@@@@",
"OOOOOOOOOOOO++++####################++++++++XXXX    oooooooo@@@@",
"OOOOOOOOOOOO++++####################++++++++XXXX    oooooooo@@@@",
"OOOO%%%%OOOO++++########################++++XXXX    oooooooooooo",
"OOOO%%%%OOOO++++########################++++XXXX    oooooooooooo",
"OOOO%%%%OOOO++++########################++++XXXX    oooooooooooo",
"OOOO%%%%OOOO++++########################++++XXXX    oooooooooooo",
"OOOO&&&&OOOO++++++++################++++++++XXXX    oooooooo@@@@",
"OOOO&&&&OOOO++++++++################++++++++XXXX    oooooooo@@@@",
"OOOO&&&&OOOO++++++++################++++++++XXXX    oooooooo@@@@",
"OOOO&&&&OOOO++++++++################++++++++XXXX    oooooooo@@@@",
"XXXX%%%%XXXXXXXX++++++++++++++++++++++++OOOOOOOOOOOOOOOOoooo@@@@",
"XXXX%%%%XXXXXXXX++++++++++++++++++++++++OOOOOOOOOOOOOOOOoooo@@@@",
"XXXX%%%%XXXXXXXX++++++++++++++++++++++++OOOOOOOOOOOOOOOOoooo@@@@",
"XXXX%%%%XXXXXXXX++++++++++++++++++++++++OOOOOOOOOOOOOOOOoooo@@@@",
"XXXX$$$$XXXX    XXXXOOOOOOOOOOOOOOOOOOOO$$$$%%%%%%%%$$$$OOOOoooo",
"XXXX$$$$XXXX    XXXXOOOOOOOOOOOOOOOOOOOO$$$$%%%%%%%%$$$$OOOOoooo",
"XXXX$$$$XXXX    XXXXOOOOOOOOOOOOOOOOOOOO$$$$%%%%%%%%$$$$OOOOoooo",
"XXXX$$$$XXXX    XXXXOOOOOOOOOOOOOOOOOOOO$$$$%%%%%%%%$$$$OOOOoooo",
"XXXXXXXXXXXXooooOOOO$$$$%%%%%%%%$$$$OOOO$$$$$$$$$$$$$$$$OOOOoooo",
"XXXXXXXXXXXXooooOOOO$$$$%%%%%%%%$$$$OOOO$$$$$$$$$$$$$$$$OOOOoooo",
"XXXXXXXXXXXXooooOOOO$$$$%%%%%%%%$$$$OOOO$$$$$$$$$$$$$$$$OOOOoooo",
"XXXXXXXXXXXXooooOOOO$$$$%%%%%%%%$$$$OOOO$$$$$$$$$$$$$$$$OOOOoooo",
"....ooooooooooooOOOO$$$$$$$$$$$$$$$$OOOO$$$$&&&&&&&&$$$$XXXX@@@@",
"....ooooooooooooOOOO$$$$$$$$$$$$$$$$OOOO$$$$&&&&&&&&$$$$XXXX@@@@",
"....ooooooooooooOOOO$$$$$$$$$$$$$$$$OOOO$$$$&&&&&&&&$$$$XXXX@@@@",
"....ooooooooooooOOOO$$$$$$$$$$$$$$$$OOOO$$$$&&&&&&&&$$$$XXXX@@@@",
"....ooooooooooooXXXX$$$$&&&&&&&&$$$$XXXXXXXXXXXXXXXXXXXXoooo@@@@",
"....ooooooooooooXXXX$$$$&&&&&&&&$$$$XXXXXXXXXXXXXXXXXXXXoooo@@@@",
"....ooooooooooooXXXX$$$$&&&&&&&&$$$$XXXXXXXXXXXXXXXXXXXXoooo@@@@",
"....ooooooooooooXXXX$$$$&&&&&&&&$$$$XXXXXXXXXXXXXXXXXXXXoooo@@@@",
"@@@@@@@@@@@@ooooooooXXXXXXXXXXXXXXXX@@@@@@@@oooo@@@@@@@@@@@@@@@@",
"@@@@@@@@@@@@ooooooooXXXXXXXXXXXXXXXX@@@@@@@@oooo@@@@@@@@@@@@@@@@",
"@@@@@@@@@@@@ooooooooXXXXXXXXXXXXXXXX@@@@@@@@oooo@@@@@@@@@@@@@@@@",
"@@@@@@@@@@@@ooooooooXXXXXXXXXXXXXXXX@@@@@@@@oooo@@@@@@@@@@@@@@@@"
};
