/* XPM */
static char *a24193ddcef24f34f0de877c28de91eeIlDL04sB5GKhMqAc[] = {
/* columns rows colors chars-per-pixel */
"64 64 3 1 ",
"  c #222222",
". c #483B3A",
"X c #775C55",
/* pixels */
"            ....                ............    ....            ",
"            ....                ............    ....            ",
"            ....                ............    ....            ",
"            ....                ............    ....            ",
"    ........................................................XXXX",
"    ........................................................XXXX",
"    ........................................................XXXX",
"    ........................................................XXXX",
"............................................................XXXX",
"............................................................XXXX",
"............................................................XXXX",
"............................................................XXXX",
"............................................................XXXX",
"............................................................XXXX",
"............................................................XXXX",
"............................................................XXXX",
"    ............XXXXXXXXXXXXXXXXXXXXXXXXXXXXXXXX............XXXX",
"    ............XXXXXXXXXXXXXXXXXXXXXXXXXXXXXXXX............XXXX",
"    ............XXXXXXXXXXXXXXXXXXXXXXXXXXXXXXXX............XXXX",
"    ............XXXXXXXXXXXXXXXXXXXXXXXXXXXXXXXX............XXXX",
"........XXXXXXXX    XXXX        XXXX    XXXXXXXXXXXXXXXX....XXXX",
"........XXXXXXXX    XXXX        XXXX    XXXXXXXXXXXXXXXX....XXXX",
"........XXXXXXXX    XXXX        XXXX    XXXXXXXXXXXXXXXX....XXXX",
"........XXXXXXXX    XXXX        XXXX    XXXXXXXXXXXXXXXX....XXXX",
"    XXXXXXXX        XXXX                XXXX    XXXX    XXXX....",
"    XXXXXXXX        XXXX                XXXX    XXXX    XXXX....",
"    XXXXXXXX        XXXX                XXXX    XXXX    XXXX....",
"    XXXXXXXX        XXXX                XXXX    XXXX    XXXX....",
"        XXXX                            XXXX                XXXX",
"        XXXX                            XXXX                XXXX",
"        XXXX                            XXXX                XXXX",
"        XXXX                            XXXX                XXXX",
"                                                            ....",
"                                                            ....",
"                                                            ....",
"                                                            ....",
"....                                                        ....",
"....                                                        ....",
"....                                                        ....",
"....                                                        ....",
"....XXXX                                                XXXXXXXX",
"....XXXX                                                XXXXXXXX",
"....XXXX                                                XXXXXXXX",
"....XXXX                                                XXXXXXXX",
"    ....XXXXXXXX                                XXXXXXXX........",
"    ....XXXXXXXX                                XXXXXXXX........",
"    ....XXXXXXXX                                XXXXXXXX........",
"    ....XXXXXXXX                                XXXXXXXX........",
"    ............XXXXXXXXXXXXXXXXXXXXXXXXXXXXXXXX................",
"    ............XXXXXXXXXXXXXXXXXXXXXXXXXXXXXXXX................",
"    ............XXXXXXXXXXXXXXXXXXXXXXXXXXXXXXXX................",
"    ............XXXXXXXXXXXXXXXXXXXXXXXXXXXXXXXX................",
"    ........................................................XXXX",
"    ........................................................XXXX",
"    ........................................................XXXX",
"    ........................................................XXXX",
"    ........................................................XXXX",
"    ........................................................XXXX",
"    ........................................................XXXX",
"    ........................................................XXXX",
"XXXXXXXXXXXX........XXXX....XXXXXXXXXXXXXXXX....XXXXXXXXXXXXXXXX",
"XXXXXXXXXXXX........XXXX....XXXXXXXXXXXXXXXX....XXXXXXXXXXXXXXXX",
"XXXXXXXXXXXX........XXXX....XXXXXXXXXXXXXXXX....XXXXXXXXXXXXXXXX",
"XXXXXXXXXXXX........XXXX....XXXXXXXXXXXXXXXX....XXXXXXXXXXXXXXXX"
};
