/* XPM */
static char *_0ae7dc38f4e4a88dfd86b53a15deb17a3Gx5TZHH55mjm7h[] = {
/* columns rows colors chars-per-pixel */
"64 64 3 1 ",
"  c #222222",
". c #483B3A",
"X c #775C55",
/* pixels */
"            ....                ............    ....            ",
"            ....                ............    ....            ",
"            ....                ............    ....            ",
"            ....                ............    ....            ",
"    ........................................................XXXX",
"    ........................................................XXXX",
"    ........................................................XXXX",
"    ........................................................XXXX",
"............................................................XXXX",
"............................................................XXXX",
"............................................................XXXX",
"............................................................XXXX",
"............................................................XXXX",
"............................................................XXXX",
"............................................................XXXX",
"............................................................XXXX",
"    ........................................................XXXX",
"    ........................................................XXXX",
"    ........................................................XXXX",
"    ........................................................XXXX",
"............................................................XXXX",
"............................................................XXXX",
"............................................................XXXX",
"............................................................XXXX",
"    ............................................................",
"    ............................................................",
"    ............................................................",
"    ............................................................",
"    ........................................................XXXX",
"    ........................................................XXXX",
"    ........................................................XXXX",
"    ........................................................XXXX",
"    ............................................................",
"    ............................................................",
"    ............................................................",
"    ............................................................",
"............................................................XXXX",
"............................................................XXXX",
"............................................................XXXX",
"............................................................XXXX",
"............................................................XXXX",
"............................................................XXXX",
"............................................................XXXX",
"............................................................XXXX",
"    ............................................................",
"    ............................................................",
"    ............................................................",
"    ............................................................",
"    ............................................................",
"    ............................................................",
"    ............................................................",
"    ............................................................",
"    ........................................................XXXX",
"    ........................................................XXXX",
"    ........................................................XXXX",
"    ........................................................XXXX",
"    ........................................................XXXX",
"    ........................................................XXXX",
"    ........................................................XXXX",
"    ........................................................XXXX",
"XXXXXXXXXXXX........XXXX....XXXXXXXXXXXXXXXX....XXXXXXXXXXXXXXXX",
"XXXXXXXXXXXX........XXXX....XXXXXXXXXXXXXXXX....XXXXXXXXXXXXXXXX",
"XXXXXXXXXXXX........XXXX....XXXXXXXXXXXXXXXX....XXXXXXXXXXXXXXXX",
"XXXXXXXXXXXX........XXXX....XXXXXXXXXXXXXXXX....XXXXXXXXXXXXXXXX"
};
