/* XPM */
static char *fc3561a343a94bd7f7841c7ec8494c3elsmgEZ6GxuYSTmZ2[] = {
/* columns rows colors chars-per-pixel */
"64 64 6 1 ",
"  c #222222",
". c #483B3A",
"X c #775C55",
"o c #417089",
"O c #72D6CE",
"+ c #FDF7ED",
/* pixels */
"                                                ....            ",
"                                                ....            ",
"                                                ....            ",
"                                                ....            ",
"    ....    OOOOOOOOOOOOOOOOOOOOOOOO++++++++    ............XXXX",
"    ....    OOOOOOOOOOOOOOOOOOOOOOOO++++++++    ............XXXX",
"    ....    OOOOOOOOOOOOOOOOOOOOOOOO++++++++    ............XXXX",
"    ....    OOOOOOOOOOOOOOOOOOOOOOOO++++++++    ............XXXX",
"........    OOOOOOOOoooooooooooooooooooooooo        ........XXXX",
"........    OOOOOOOOoooooooooooooooooooooooo        ........XXXX",
"........    OOOOOOOOoooooooooooooooooooooooo        ........XXXX",
"........    OOOOOOOOoooooooooooooooooooooooo        ........XXXX",
"........    OOOOOOOOooooOOOOOOOOOOOOOOOOOOOO++++++++    ....XXXX",
"........    OOOOOOOOooooOOOOOOOOOOOOOOOOOOOO++++++++    ....XXXX",
"........    OOOOOOOOooooOOOOOOOOOOOOOOOOOOOO++++++++    ....XXXX",
"........    OOOOOOOOooooOOOOOOOOOOOOOOOOOOOO++++++++    ....XXXX",
"    ....    OOOOOOOOooooOOOOooooOOOOooooOOOOoooo++++    ....XXXX",
"    ....    OOOOOOOOooooOOOOooooOOOOooooOOOOoooo++++    ....XXXX",
"    ....    OOOOOOOOooooOOOOooooOOOOooooOOOOoooo++++    ....XXXX",
"    ....    OOOOOOOOooooOOOOooooOOOOooooOOOOoooo++++    ....XXXX",
"........    OOOOOOOOooooOOOOooooOOOOooooOOOOoooo++++    ....XXXX",
"........    OOOOOOOOooooOOOOooooOOOOooooOOOOoooo++++    ....XXXX",
"........    OOOOOOOOooooOOOOooooOOOOooooOOOOoooo++++    ....XXXX",
"........    OOOOOOOOooooOOOOooooOOOOooooOOOOoooo++++    ....XXXX",
"    ....    OOOOOOOOooooOOOOooooOOOOooooOOOOoooo++++    ........",
"    ....    OOOOOOOOooooOOOOooooOOOOooooOOOOoooo++++    ........",
"    ....    OOOOOOOOooooOOOOooooOOOOooooOOOOoooo++++    ........",
"    ....    OOOOOOOOooooOOOOooooOOOOooooOOOOoooo++++    ........",
"    ....    OOOOOOOOooooOOOOOOOOOOOOOOOOOOOO++++++++    ....XXXX",
"    ....    OOOOOOOOooooOOOOOOOOOOOOOOOOOOOO++++++++    ....XXXX",
"    ....    OOOOOOOOooooOOOOOOOOOOOOOOOOOOOO++++++++    ....XXXX",
"    ....    OOOOOOOOooooOOOOOOOOOOOOOOOOOOOO++++++++    ....XXXX",
"    ....    OOOOOOOOoooooooooooooooooooooooo        ............",
"    ....    OOOOOOOOoooooooooooooooooooooooo        ............",
"    ....    OOOOOOOOoooooooooooooooooooooooo        ............",
"    ....    OOOOOOOOoooooooooooooooooooooooo        ............",
"........    OOOOOOOOOOOOOOOOOOOOOOOOOOOO++++    ............XXXX",
"........    OOOOOOOOOOOOOOOOOOOOOOOOOOOO++++    ............XXXX",
"........    OOOOOOOOOOOOOOOOOOOOOOOOOOOO++++    ............XXXX",
"........    OOOOOOOOOOOOOOOOOOOOOOOOOOOO++++    ............XXXX",
"........    ooooooooooooooooooooooooooooOOOO    ............XXXX",
"........    ooooooooooooooooooooooooooooOOOO    ............XXXX",
"........    ooooooooooooooooooooooooooooOOOO    ............XXXX",
"........    ooooooooooooooooooooooooooooOOOO    ............XXXX",
"    ....    OOOOOOOOOOOOOOOOOOOOOOOOOOOO++++    ................",
"    ....    OOOOOOOOOOOOOOOOOOOOOOOOOOOO++++    ................",
"    ....    OOOOOOOOOOOOOOOOOOOOOOOOOOOO++++    ................",
"    ....    OOOOOOOOOOOOOOOOOOOOOOOOOOOO++++    ................",
"    ....    OOOOOOOOOOOOOOOOOOOOOOOOOOOO++++    ................",
"    ....    OOOOOOOOOOOOOOOOOOOOOOOOOOOO++++    ................",
"    ....    OOOOOOOOOOOOOOOOOOOOOOOOOOOO++++    ................",
"    ....    OOOOOOOOOOOOOOOOOOOOOOOOOOOO++++    ................",
"    ....    oooooooo                oooooooo    ............XXXX",
"    ....    oooooooo                oooooooo    ............XXXX",
"    ....    oooooooo                oooooooo    ............XXXX",
"    ....    oooooooo                oooooooo    ............XXXX",
"    ....    oooo    ............    oooo    ................XXXX",
"    ....    oooo    ............    oooo    ................XXXX",
"    ....    oooo    ............    oooo    ................XXXX",
"    ....    oooo    ............    oooo    ................XXXX",
"XXXXXXXX        ....XXXX....XXXX        XXXX....XXXXXXXXXXXXXXXX",
"XXXXXXXX        ....XXXX....XXXX        XXXX....XXXXXXXXXXXXXXXX",
"XXXXXXXX        ....XXXX....XXXX        XXXX....XXXXXXXXXXXXXXXX",
"XXXXXXXX        ....XXXX....XXXX        XXXX....XXXXXXXXXXXXXXXX"
};
